<?xml version="1.0" standalone="no"?>
<!DOCTYPE svg PUBLIC "-//W3C//DTD SVG 20010904//EN"
 "http://www.w3.org/TR/2001/REC-SVG-20010904/DTD/svg10.dtd">
<svg version="1.0" xmlns="http://www.w3.org/2000/svg"
 width="512.000000pt" height="512.000000pt" viewBox="0 0 512.000000 512.000000"
 preserveAspectRatio="xMidYMid meet">

<g transform="translate(0.000000,512.000000) scale(0.100000,-0.100000)"
fill="#000000" stroke="none">
<path d="M1005 3138 c2 -13 32 -273 65 -578 34 -305 63 -565 66 -577 4 -22 8
-23 132 -23 l129 0 33 313 c39 353 33 357 76 -45 l28 -268 126 0 125 0 64 573
c35 314 66 584 68 600 l6 27 -85 0 -84 0 -43 -427 c-24 -236 -46 -446 -50
-468 -5 -28 -20 96 -49 395 -23 239 -45 450 -48 468 l-5 32 -89 0 -88 0 -6
-47 c-3 -27 -22 -214 -41 -418 -19 -203 -38 -390 -41 -415 -8 -49 -7 -51 -75
578 l-32 302 -94 0 c-92 0 -93 0 -88 -22z"/>
<path d="M2010 2560 l0 -600 95 0 95 0 0 186 c0 183 0 187 27 235 14 27 30 46
34 42 4 -5 46 -110 94 -235 l88 -228 93 0 c52 0 94 3 94 8 0 4 -58 153 -128
332 l-128 324 128 262 c70 145 128 265 128 269 0 3 -41 4 -92 3 l-92 -3 -121
-254 -120 -253 -3 256 -2 256 -95 0 -95 0 0 -600z"/>
<path d="M2730 2560 l0 -600 85 0 85 0 2 426 3 426 115 -426 115 -426 97 0 98
0 0 600 0 600 -85 0 -85 0 -2 -351 -3 -350 -94 350 -94 351 -119 0 -118 0 0
-600z"/>
<path d="M3460 2560 l0 -602 198 4 c188 3 199 4 247 29 60 30 108 96 124 169
7 31 11 187 11 400 0 213 -4 369 -11 400 -16 73 -64 139 -124 169 -48 25 -59
26 -247 29 l-198 4 0 -602z m357 406 l28 -24 0 -382 0 -382 -28 -24 c-24 -20
-39 -24 -98 -24 l-69 0 0 430 0 430 69 0 c59 0 74 -4 98 -24z"/>
</g>
</svg>
